<svg width="759" height="228" viewBox="0 0 759 228" fill="none" xmlns="http://www.w3.org/2000/svg">
<path d="M162 227.6C218 175.5 248.8 137.9 277.6 73.3996C298.7 30.2996 350.3 32.6996 372.5 45.9996C385.8 51.6996 403 44.9996 411.3 33.0996L422 78.7996C409.1 90.9996 385.2 90.9996 374.4 77.7996C353.7 54.5996 318.2 54.8996 298.7 92.8996C286.5 117.6 258.4 181.2 265.7 227.6C227.5 227.6 203.4 227.6 162 227.6Z" fill="#D97706"/>
<path d="M300.8 5.29999L366.6 0C365.3 16.6 364.2 19.6 369.2 38.9C339.8 27 310.8 30.2 287.8 52.3C297.1 32.7 300.5 24 300.8 5.29999Z" fill="#D97706"/>
<path d="M375.8 122.7C373.5 127.9 365.9 138.4 355.1 141.2C355.4 175.9 351 198.2 335.9 227.5C367.7 227.5 387.7 227.5 415.5 227.5C400.2 197.7 380.3 154.8 375.8 122.7Z" fill="#D97706"/>
<path d="M340.3 67.2002C359.851 67.2002 375.7 83.0497 375.7 102.601C375.7 122.151 359.851 138 340.3 138C320.749 138 304.9 122.151 304.899 102.601C304.899 83.0497 320.749 67.2002 340.3 67.2002ZM340.3 80.5C328.095 80.5002 318.2 90.3944 318.2 102.6C318.2 114.805 328.094 124.7 340.3 124.7C352.505 124.7 362.4 114.805 362.4 102.6C362.4 90.3943 352.505 80.5 340.3 80.5Z" fill="#D97706"/>
<path d="M12.6 124.301V87.3005C12.6 82.5005 12.3 79.5006 11.6 78.2006C10.9 76.9006 9.2 75.9006 6.3 75.1006C2.1 73.9006 0 71.8005 0 68.8005C0 66.7005 0.899997 65.1006 2.7 63.9006C4.5 62.8006 7.09999 62.2006 10.4 62.2006C11.5 62.2006 14.3 62.3006 18.8 62.4006H23C30.8 62.4006 35.3 62.3006 36.7 62.2006C38.1 62.1006 42.8 61.7005 51 61.0005C53.7 60.7005 56.2 60.6006 58.5 60.6006C66.2 60.6006 73 62.2005 79 65.3005C89.5 70.7005 94.7 79.4006 94.7 91.2006C94.7 100.801 91 108.401 83.7 114.201C76.8 119.601 68.5 122.301 58.7 122.301C56.2 122.301 53.2 122.101 49.6 121.801C47.7 121.701 46.5 121.601 46 121.601C44.6 121.601 44 122.401 44 123.901V124.301L44.5 135.801C44.6 138.101 45 139.701 45.7 140.801C46.4 141.901 47.9 143.001 50.2 144.201C53.2 145.801 54.8 147.601 54.8 149.501C54.8 152.501 52.5 154.701 48 156.301C43.5 157.901 37.1 158.701 28.9 158.701C11.6 158.701 2.89999 155.701 2.89999 149.801C2.89999 148.401 3.3 147.301 4 146.601C4.7 145.901 6.5 144.801 9.3 143.401C11 142.501 12 141.301 12.3 139.701C12.3 138.101 12.5 133.001 12.6 124.301ZM44.3 78.4006V102.301C44.3 104.101 44.7 105.201 45.5 105.601C46.9 106.301 48.6 106.601 50.6 106.601C53.7 106.601 56.3 105.701 58.4 104.001C61.4 101.501 63 97.3005 63 91.5005C63 85.4005 61.2 81.0005 57.7 78.3005C55.4 76.6005 52.7 75.7006 49.5 75.7006C46 75.7006 44.3 76.6006 44.3 78.4006Z" fill="#16A34A"/>
<path d="M129.5 103.4C135.8 103.4 141.1 105 145.5 108.2C147.8 109.9 149.4 111.8 150.4 114C151.3 116.2 151.8 119.2 151.8 123L151.7 131.1C151.7 136.7 152.1 140.3 152.9 142C153.3 142.8 153.7 143.3 154 143.5C154.4 143.7 155.1 143.9 156.3 144.1C157.5 144.3 158 145 158 146.4C158 148.1 157.3 149.9 155.9 151.8C154.5 153.7 152.7 155.3 150.5 156.5C147.8 158.1 145 158.9 142 158.9C138.2 158.9 135.2 157.6 133 155C132.2 154.1 131.5 153.6 130.9 153.6C130.2 153.6 129.2 154.1 128 155C124.4 157.6 120.3 159 115.7 159C111 159 107.1 158 104.2 156C102.3 154.7 100.8 152.9 99.5999 150.8C98.4999 148.7 97.8999 146.4 97.8999 144.1C97.8999 140.3 99.3999 137 102.5 134.1C107.2 129.5 114.3 127.3 123.7 127.2C125.8 127.2 127.1 127 127.7 126.6C128.2 126.2 128.5 125.2 128.5 123.7C128.5 119.9 128.1 117.1 127.3 115.4C126.5 113.7 125.2 112.8 123.4 112.8C122.3 112.8 121.3 113.1 120.5 113.8C119.7 114.5 118.6 115.6 117.3 117.4C114.1 122 110.7 124.3 107.2 124.3C105.4 124.3 104 123.8 102.9 122.7C101.8 121.7 101.2 120.3 101.2 118.6C101.2 116.9 101.9 115.1 103.3 113.4C104.7 111.7 106.6 110.1 109 108.8C115.6 105.1 122.4 103.4 129.5 103.4ZM125.9 134.8C124.3 134.8 122.9 135.5 121.8 136.8C120.6 138.1 120 139.7 120 141.5C120 143.2 120.4 144.6 121.2 145.7C122 146.8 123.1 147.3 124.5 147.3C127.4 147.3 128.8 144.9 128.8 140C128.8 138 128.6 136.7 128.2 136C127.8 135.2 127 134.8 125.9 134.8Z" fill="#384251"/>
<path d="M189.2 104.8H203.6C206.9 104.8 209 104.9 210 105C210.9 105.1 211.6 105.4 212.1 105.9C212.7 106.5 213 107.3 213 108.3C213 109.6 212.4 111.4 211.2 113.4L196.8 138.9C195.6 141 195 142.5 195 143.4C195 145.1 196.3 145.9 198.8 145.9C200.6 145.9 202.1 145.5 203.2 144.8C204.3 144.1 205.3 142.8 206.3 140.9C207.1 139.2 207.8 138.1 208.4 137.6C208.9 137 209.6 136.8 210.4 136.8C212 136.8 213.3 137.4 214.3 138.7C215.3 140 215.8 141.6 215.8 143.6C215.8 145.8 215.2 148.2 214 150.8C212.8 153.3 211.2 155.5 209.3 157.2C207.9 158.5 206.6 159.1 205.3 159.1C204.8 159.1 204.1 158.9 203.2 158.6C201.4 157.8 199.3 157.4 196.9 157.4H168.5C163.7 157.4 161.3 156 161.3 153.2C161.3 152.6 161.5 151.9 161.8 151.2C162.2 150.5 163.4 148.4 165.6 144.8L178 124.9C180.3 121.2 181.5 118.9 181.5 117.9C181.5 116.5 180 115.7 176.9 115.7C175.3 115.7 174.1 116 173.2 116.6C172.3 117.2 171.3 118.3 170.2 119.9C169 121.9 168.1 123.1 167.5 123.7C166.9 124.3 166 124.5 165 124.5C163.6 124.5 162.4 123.9 161.5 122.8C160.6 121.7 160.1 120.3 160.1 118.6C160.1 115.3 161.2 111.8 163.4 108.1C165.5 104.5 167.5 102.7 169.4 102.7C169.8 102.7 170.4 102.8 171.1 103.1C173.1 103.8 174.7 104.2 175.8 104.3C177.2 104.5 181.6 104.7 189.2 104.8Z" fill="#384251"/>
<path d="M432.2 103.8C434.1 103.8 435.3 104.1 435.7 104.6C436.1 105.1 436.5 106.9 436.8 109.8C437 111.4 437.5 112.2 438.5 112.2C439.2 112.2 439.9 111.7 440.6 110.6C443.5 106.1 447.3 103.8 451.9 103.8C455.2 103.8 457.9 104.9 460 107C461 108 461.8 109.4 462.5 111C463.2 112.6 463.5 114.2 463.5 115.7C463.5 117.4 463.1 119.1 462.3 120.9C461.5 122.7 460.5 124.2 459.2 125.3C456.9 127.5 454.1 128.6 450.7 128.6C448.9 128.6 447.3 128.3 446.1 127.6C444.9 126.9 443.2 125.6 441.2 123.6C440.4 122.8 439.7 122.5 439.1 122.5C438.1 122.5 437.4 123.1 437.1 124.2C436.8 125.3 436.6 127.7 436.6 131.4C436.6 136.9 436.8 140.6 437.2 142.6C437.5 143.7 437.8 144.4 438.3 144.8C438.8 145.2 439.7 145.6 441.2 146.1C444.5 147.1 446.1 148.8 446.1 151.2C446.1 152.7 445.6 154 444.5 155.1C443.5 156.2 442.1 156.9 440.3 157.3C436.8 158 431.7 158.4 425 158.4C418.6 158.4 413.7 157.8 410.4 156.7C407.4 155.7 406 153.9 406 151.4C406 149.5 407.1 147.8 409.3 146.4C410.3 145.7 411.1 145.1 411.5 144.5C411.9 143.9 412.2 143.2 412.3 142.2C412.9 138.9 413.2 132.8 413.2 123.9C413.2 122.3 413 121.1 412.7 120.4C412.3 119.7 411.6 119.1 410.5 118.7C407.9 117.7 406.7 116.2 406.7 114.3C406.7 112.6 407.6 111.1 409.4 109.8C411.2 108.6 414.1 107.3 418.3 106.1C423.5 104.7 428.3 103.8 432.2 103.8Z" fill="#384251"/>
<path d="M497.1 107.2V138.7C497.1 141.2 497.3 143 497.8 144.2C498.3 145.4 499.2 146.4 500.5 147.4C501.6 148.2 502.4 148.9 502.7 149.4C503.1 150 503.3 150.7 503.3 151.5C503.3 156.2 497.4 158.5 485.6 158.5C479.2 158.5 474.2 158 470.5 157C469.2 156.6 468.2 156 467.4 155.1C466.6 154.2 466.2 153.2 466.2 152C466.2 151 466.4 150.3 466.8 149.7C467.2 149.2 468.2 148.3 469.8 147.1C470.9 146.3 471.7 144.9 472.2 143C472.7 141.1 472.9 138.3 472.9 134.6C472.9 133.4 472.8 131.2 472.7 127.9C472.5 124.6 472.4 122.7 472.3 122.2C472.1 120.7 471.1 119.6 469.3 118.8C467.1 117.8 465.9 116.4 465.9 114.5C465.9 112.2 467.4 110.5 470.3 109.4C474.3 107.8 478.7 106.5 483.3 105.4C487.9 104.3 491.5 103.8 494 103.8C496.1 103.8 497.1 105 497.1 107.2ZM486.4 83.5C489.5 83.5 492 84.1 493.9 85.3C495.7 86.5 496.7 88.1 496.7 90C496.7 92.8 495.3 95 492.5 96.6C488.1 99.2 482.8 100.4 476.5 100.4C473.9 100.4 471.8 99.9 470.2 98.9C468.1 97.6 467.1 95.8 467.1 93.5C467.1 90.4 469.3 88 473.8 86.2C478.2 84.4 482.4 83.5 486.4 83.5Z" fill="#384251"/>
<path d="M561.3 59.5C573.3 59.5 583.9 62.9 592.9 69.8C599 74.5 603.9 80.7 607.7 88.2C611.4 95.7 613.3 103.2 613.3 110.7C613.3 121.8 609.6 131.7 602.3 140.4C596.1 147.8 588 153.1 578 156.4C571.9 158.4 565.7 159.4 559.5 159.4C551.4 159.4 543.6 157.7 536.2 154.3C527.2 150.2 520.2 144.1 515.2 135.8C510.3 127.8 507.8 119 507.8 109.4C507.8 98.2 511 88.4 517.3 79.9C522.9 72.3 530.5 66.7 540 63.2C546.4 60.7 553.5 59.5 561.3 59.5ZM554.6 79.7C550.7 79.7 547.5 81.5 545.2 85C543.4 87.6 542.5 90.7 542.5 94.4C542.5 99.7 543.6 105.8 545.7 112.8C547.9 119.8 550.6 125.9 553.9 131.3C555.4 133.6 557.1 135.4 559.3 136.8C561.4 138.2 563.6 138.8 565.8 138.8C569.4 138.8 572.2 137.5 574.4 134.8C576.6 132.1 577.7 128.6 577.7 124.3C577.7 118.6 576.8 112.5 575 105.9C573.2 99.3 570.8 93.7 567.9 89.1C566.1 86.2 564.1 84 561.7 82.3C559.4 80.6 557 79.8 554.6 79.7Z" fill="#0284C7"/>
<path d="M633.2 133.3C636.6 133.3 639.6 134.5 642.1 136.9C644.7 139.3 645.9 142.4 645.9 146.3C645.9 149.9 644.6 152.9 642.1 155.4C639.6 157.8 636.6 159 633.2 159C629.8 159 626.8 157.8 624.3 155.4C621.7 152.9 620.5 149.9 620.5 146.2C620.5 142.4 621.8 139.4 624.3 137C626.8 134.5 629.8 133.4 633.2 133.3Z" fill="#384251"/>
<path d="M677.2 103.8C679.1 103.8 680.3 104.1 680.7 104.6C681.1 105.1 681.5 106.9 681.8 109.8C682 111.4 682.5 112.2 683.5 112.2C684.2 112.2 684.9 111.7 685.6 110.6C688.5 106.1 692.3 103.8 696.9 103.8C700.2 103.8 702.9 104.9 705 107C706 108 706.8 109.4 707.5 111C708.2 112.6 708.5 114.2 708.5 115.7C708.5 117.4 708.1 119.1 707.3 120.9C706.5 122.7 705.5 124.2 704.2 125.3C701.9 127.5 699.1 128.6 695.7 128.6C693.9 128.6 692.3 128.3 691.1 127.6C689.9 126.9 688.2 125.6 686.2 123.6C685.4 122.8 684.7 122.5 684.1 122.5C683.1 122.5 682.4 123.1 682.1 124.2C681.8 125.3 681.6 127.7 681.6 131.4C681.6 136.9 681.8 140.6 682.2 142.6C682.5 143.7 682.8 144.4 683.3 144.8C683.8 145.2 684.7 145.6 686.2 146.1C689.5 147.1 691.1 148.8 691.1 151.2C691.1 152.7 690.6 154 689.5 155.1C688.5 156.2 687.1 156.9 685.3 157.3C681.8 158 676.7 158.4 670 158.4C663.6 158.4 658.7 157.8 655.4 156.7C652.4 155.7 651 153.9 651 151.4C651 149.5 652.1 147.8 654.3 146.4C655.3 145.7 656.1 145.1 656.5 144.5C656.9 143.9 657.2 143.2 657.3 142.2C657.9 138.9 658.2 132.8 658.2 123.9C658.2 122.3 658 121.1 657.7 120.4C657.3 119.7 656.6 119.1 655.5 118.7C652.9 117.7 651.7 116.2 651.7 114.3C651.7 112.6 652.6 111.1 654.4 109.8C656.2 108.6 659.1 107.3 663.3 106.1C668.6 104.7 673.3 103.8 677.2 103.8Z" fill="#384251"/>
<path d="M731.8 103.5C733.6 103.5 736.6 103.9 740.6 104.7C741.4 104.8 742.1 104.9 742.7 104.9C743.3 104.9 744.5 104.6 746.3 103.9C747.1 103.6 747.8 103.4 748.4 103.4C750.1 103.4 751.7 104.5 753.4 106.6C754.8 108.3 755.9 110.2 756.8 112.2C757.7 114.2 758.1 116 758.1 117.5C758.1 118.9 757.6 120.1 756.6 121.1C755.6 122.1 754.3 122.5 752.8 122.5C751.5 122.5 750.4 122.2 749.4 121.6C748.4 121 746.8 119.6 744.6 117.5C742.3 115.3 740.4 114.1 738.9 114.1C737.9 114.1 737 114.5 736.3 115.2C735.6 115.9 735.2 116.8 735.2 117.8C735.2 119.6 736.9 121.2 740.3 122.8C746.4 125.5 751.1 128.5 754.3 131.8C757 134.5 758.4 137.9 758.4 141.9C758.4 146.9 756.2 151.1 751.8 154.5C748 157.4 743.4 158.9 737.9 158.9C736.5 158.9 733.9 158.7 730.2 158.2C726.7 157.8 724.7 157.6 724.3 157.6C723.8 157.6 723.3 157.7 722.7 157.8C721.7 157.9 720.9 158 720.4 158C718.7 158 717.4 157.6 716.4 156.7C714.9 155.4 713.5 153.3 712.3 150.4C711 147.5 710.4 145.1 710.4 143C710.4 139.7 711.7 138 714.3 138C715.3 138 716.2 138.3 717.1 139C717.9 139.7 719.7 141.4 722.4 144.3C723.9 145.9 725.1 147 726.1 147.6C727.1 148.2 728.1 148.5 729.2 148.5C730.4 148.5 731.3 148.2 732.1 147.6C732.8 147 733.2 146.1 733.2 145.1C733.2 143.5 731.8 142 729 140.7C723.2 137.8 719 134.9 716.4 131.9C713.8 128.9 712.5 125.4 712.5 121.4C712.5 117.1 713.8 113.4 716.5 110.3C720.2 105.7 725.3 103.5 731.8 103.5Z" fill="#384251"/>
</svg>
