<svg width="260" height="228" viewBox="0 0 260 228" fill="none" xmlns="http://www.w3.org/2000/svg">
<path d="M0 227.6C56 175.5 86.8 137.9 115.6 73.3996C136.7 30.2996 188.3 32.6996 210.5 45.9996C223.8 51.6996 241 44.9996 249.3 33.0996L260 78.7996C247.1 90.9996 223.2 90.9996 212.4 77.7996C191.7 54.5996 156.2 54.8996 136.7 92.8996C124.5 117.6 96.4 181.2 103.7 227.6C65.5 227.6 41.4 227.6 0 227.6Z" fill="#16A34A"/>
<path d="M138.8 5.29999L204.6 0C203.3 16.6 202.2 19.6 207.2 38.9C177.8 27 148.8 30.2 125.8 52.3C135.1 32.7 138.5 24 138.8 5.29999Z" fill="#F59E0B"/>
<path d="M213.8 122.7C211.5 127.9 203.9 138.4 193.1 141.2C193.4 175.9 189 198.2 173.9 227.5C205.7 227.5 225.7 227.5 253.5 227.5C238.2 197.7 218.3 154.8 213.8 122.7Z" fill="#F59E0B"/>
<path d="M178.3 67.2002C197.851 67.2002 213.7 83.0497 213.7 102.601C213.7 122.151 197.851 138 178.3 138C158.749 138 142.9 122.151 142.899 102.601C142.899 83.0497 158.749 67.2002 178.3 67.2002ZM178.3 80.5C166.095 80.5002 156.2 90.3944 156.2 102.6C156.2 114.805 166.094 124.7 178.3 124.7C190.505 124.7 200.4 114.805 200.4 102.6C200.4 90.3943 190.505 80.5 178.3 80.5Z" fill="#0EA5E9"/>
</svg>
